<svg width="17" height="21" viewBox="0 0 17 21" fill="none" xmlns="http://www.w3.org/2000/svg">
<path d="M4.66667 17.2084H12.3333V15.2917H4.66667V17.2084ZM4.66667 14.3334H12.3333V12.4167H4.66667V14.3334ZM8.5 10.7876C9.55417 9.82925 10.4566 8.97889 11.2073 8.2365C11.958 7.49411 12.3333 6.7153 12.3333 5.90008C12.3333 5.32508 12.1257 4.82994 11.7104 4.41466C11.2951 3.99939 10.8 3.79175 10.225 3.79175C9.88959 3.79175 9.56599 3.85979 9.25421 3.99587C8.94243 4.13196 8.69103 4.31947 8.5 4.55841C8.30834 4.31883 8.05661 4.13132 7.74484 3.99587C7.43306 3.86043 7.10978 3.79239 6.775 3.79175C6.2 3.79175 5.70486 3.99939 5.28959 4.41466C4.87431 4.82994 4.66667 5.32508 4.66667 5.90008C4.66667 6.71466 5.0302 7.48133 5.75725 8.20008C6.48431 8.91883 7.39856 9.78133 8.5 10.7876ZM14.25 20.0834H2.75C2.22292 20.0834 1.77186 19.8959 1.39684 19.5209C1.02181 19.1458 0.833975 18.6945 0.833336 18.1667V2.83341C0.833336 2.30633 1.02117 1.85528 1.39684 1.48025C1.7725 1.10522 2.22356 0.917387 2.75 0.916748H14.25C14.7771 0.916748 15.2285 1.10458 15.6041 1.48025C15.9798 1.85591 16.1673 2.30697 16.1667 2.83341V18.1667C16.1667 18.6938 15.9792 19.1452 15.6041 19.5209C15.2291 19.8965 14.7777 20.0841 14.25 20.0834Z" fill="#A3D0BE"/>
</svg>
