<svg width="107" height="75" viewBox="0 0 107 75" fill="none" xmlns="http://www.w3.org/2000/svg">
<path d="M74.8756 46.3167C72.3757 45.9097 69.9027 47.2566 68.858 49.5922C68.6554 50.0453 68.5177 50.5148 68.4385 50.9893C71.0186 49.7162 73.2737 48.1815 75.2204 46.3728L74.8756 46.3167Z" fill="#124C5F"/>
<path d="M77.1951 23.6913C81.8824 20.6027 83.2099 14.2514 80.1603 9.50512C77.1106 4.75889 70.8385 3.41508 66.1512 6.50363C61.4639 9.59218 60.1363 15.9435 63.186 20.6898C66.2357 25.436 72.5077 26.7798 77.1951 23.6913Z" fill="#124C5F"/>
<path d="M95.7813 26.2799C91.4021 20.7887 85.4542 20.7258 82.1688 22.9656C78.8842 25.2042 79.1242 30.8919 81.8672 34.7107C81.9919 34.9213 82.1242 35.1405 82.2538 35.3575C83.1991 32.453 83.3323 30.3449 83.3337 30.3157C83.43 27.8516 85.4038 25.928 87.8281 25.928C87.8844 25.928 87.9406 25.9289 87.9969 25.9312C90.4771 26.0233 92.4207 28.1415 92.3293 30.6535V30.6612L92.3266 30.7018C92.2528 32.1084 91.7775 37.1648 88.7626 43.1739C88.488 43.7254 88.1644 44.3298 87.793 44.9698C88.425 46.1923 89.0326 47.4412 89.5867 48.7098L85.7477 48.0853C83.1509 51.6078 79.1786 55.604 73.2627 58.735L90.4262 73.1215C91.4759 74.0017 92.747 74.4306 94.011 74.4306C95.6291 74.4306 97.2352 73.7268 98.3483 72.3662C100.329 69.9417 99.9953 66.3503 97.6016 64.3443L93.4744 60.8833L94.8095 61.1011C95.2231 61.1681 95.6323 61.1846 96.0342 61.1609C97.0038 61.2078 98.144 60.8646 99.5461 60.37C103.441 58.9953 107.858 56.5717 106.709 49.1861C104.393 39.2648 101.758 33.8665 95.7813 26.2799Z" fill="#124C5F"/>
<path d="M87.9605 42.76C91.2013 36.301 91.4106 30.9552 91.43 30.6193C91.5029 28.6064 89.9522 26.9153 87.9645 26.8419C85.9799 26.7672 84.3122 28.3338 84.2344 30.3421L84.2339 30.3417C84.2281 30.5737 83.9278 34.9701 81.2978 39.9243C78.6398 44.8859 73.8614 50.4606 64.1878 53.7219C62.2991 54.3528 61.2729 56.4144 61.8972 58.3275C62.3964 59.86 63.8043 60.8318 65.3163 60.8318C65.6903 60.8318 66.0707 60.772 66.4452 60.6472C78.2725 56.7276 84.7502 49.2098 87.9605 42.76Z" fill="#124C5F"/>
<path d="M40.5335 60.1042C42.1701 60.4188 44.1398 60.9384 44.6606 61.4968C46.0628 62.995 46.7478 66.0896 48.5659 66.3065C49.8361 66.4579 50.2822 66.4301 51.8558 65.4017C53.4092 64.3844 51.9341 60.4233 51.5632 58.9013C51.0375 56.7417 52.2911 54.3696 52.3104 54.2246C52.3262 54.1043 53.406 51.8111 56.5276 52.6817C57.6178 52.988 56.9795 50.9473 55.2722 49.9277C53.2422 48.717 51.7734 49.2813 50.2894 50.4601C47.4239 48.2393 42.9349 48.6728 40.3827 49.64C39.9749 51.3234 39.8169 52.952 39.8169 54.4503C39.8155 56.728 40.1756 58.7031 40.5335 60.1042ZM47.8092 55.3131C48.4763 54.8523 49.3864 55.0269 49.842 55.7024C50.2966 56.3784 50.1242 57.3005 49.4571 57.7604C48.7882 58.2213 47.879 58.0471 47.4235 57.3712C46.9693 56.6956 47.1408 55.7735 47.8092 55.3131Z" fill="#124C5F"/>
<path d="M38.5431 49.5885C37.8787 49.598 37.2459 49.5784 36.6423 49.531C36.4307 49.4777 36.2119 49.4444 35.9828 49.4563C35.9689 49.4572 35.9563 49.4617 35.9423 49.4627C26.7603 48.4065 24.2608 41.3728 13.5336 48.6723C10.2936 47.7082 6.43069 45.6356 3.50491 41.2128C2.91345 40.3235 1.72289 40.0906 0.847403 40.6895C-0.0325804 41.2871 -0.264842 42.4918 0.328866 43.3816C3.11195 47.5459 6.55132 49.9855 9.77868 51.4145C9.74087 51.4947 9.70125 51.59 9.66164 51.6811C8.83432 52.9415 8.1866 54.602 7.76529 56.815C7.70633 57.1382 5.07943 74.1146 9.20522 74.1146C13.331 74.1146 14.464 61.2724 16.7677 59.6283C17.0922 59.6575 23.2125 66.1515 28.4402 65.3351C29.665 65.1428 31.3232 64.377 32.7051 63.5625L34.9665 72.7299C35.2203 73.7586 36.1282 74.4565 37.1464 74.4565C37.2576 74.4565 37.3706 74.4483 37.4835 74.431C38.6318 74.2564 39.4587 73.2326 39.3979 72.058L38.8109 60.6434C38.4157 59.1205 38.0169 56.9672 38.0151 54.4502C38.0156 52.9374 38.1628 51.2955 38.5431 49.5885Z" fill="#124C5F"/>
<path d="M58.6262 72.0083H58.0582L56.8987 68.37H43.9087L42.7491 72.0083H42.1802C41.7229 72.0083 41.3511 72.3844 41.3511 72.8484C41.3511 73.312 41.7229 73.688 42.1802 73.688H58.6262C59.0835 73.688 59.4553 73.312 59.4553 72.8484C59.4553 72.3844 59.0831 72.0083 58.6262 72.0083Z" fill="#124C5F"/>
</svg>
