<svg width="23" height="23" viewBox="0 0 23 23" fill="none" xmlns="http://www.w3.org/2000/svg">
<path d="M18.2083 2.875H17.25C16.1915 2.875 15.3333 3.73312 15.3333 4.79167V18.2083C15.3333 19.2669 16.1915 20.125 17.25 20.125H18.2083C19.2669 20.125 20.125 19.2669 20.125 18.2083V4.79167C20.125 3.73312 19.2669 2.875 18.2083 2.875Z" fill="#A3D0BE"/>
<path d="M11.9792 8.625H11.0208C9.96228 8.625 9.10416 9.48312 9.10416 10.5417V18.2083C9.10416 19.2669 9.96228 20.125 11.0208 20.125H11.9792C13.0377 20.125 13.8958 19.2669 13.8958 18.2083V10.5417C13.8958 9.48312 13.0377 8.625 11.9792 8.625Z" fill="#A3D0BE"/>
<path d="M5.75 15.3333H4.79167C3.73312 15.3333 2.875 16.1914 2.875 17.2499V18.2083C2.875 19.2668 3.73312 20.1249 4.79167 20.1249H5.75C6.80855 20.1249 7.66667 19.2668 7.66667 18.2083V17.2499C7.66667 16.1914 6.80855 15.3333 5.75 15.3333Z" fill="#A3D0BE"/>
</svg>
