<svg width="23" height="23" viewBox="0 0 23 23" fill="none" xmlns="http://www.w3.org/2000/svg">
<g clip-path="url(#clip0_23_643)">
<path fill-rule="evenodd" clip-rule="evenodd" d="M7.39286 2.46436C6.57964 2.46436 5.94221 2.95886 5.54793 3.55193C5.14871 4.14993 4.92857 4.93028 4.92857 5.75007C4.92857 6.56986 5.14871 7.35021 5.54793 7.94821C5.94221 8.53964 6.57964 9.03578 7.39286 9.03578C8.20607 9.03578 8.8435 8.54128 9.23779 7.94821C9.637 7.35021 9.85714 6.56986 9.85714 5.75007C9.85714 4.93028 9.637 4.14993 9.23779 3.55193C8.8435 2.9605 8.20607 2.46436 7.39286 2.46436ZM15.6071 2.46436C14.7939 2.46436 14.1565 2.95886 13.7622 3.55193C13.363 4.14993 13.1429 4.93028 13.1429 5.75007C13.1429 6.56986 13.363 7.35021 13.7622 7.94821C14.1565 8.53964 14.7939 9.03578 15.6071 9.03578C16.4204 9.03578 17.0578 8.54128 17.4521 7.94821C17.8513 7.35021 18.0714 6.56986 18.0714 5.75007C18.0714 4.93028 17.8513 4.14993 17.4521 3.55193C17.0578 2.9605 16.4204 2.46436 15.6071 2.46436ZM2.46429 9.85721C1.65107 9.85721 1.01364 10.3517 0.619357 10.9448C0.220143 11.5428 0 12.3231 0 13.1429C0 13.9627 0.220143 14.7431 0.619357 15.3411C1.01364 15.9325 1.65107 16.4286 2.46429 16.4286C3.2775 16.4286 3.91493 15.9341 4.30921 15.3411C4.70843 14.7431 4.92857 13.9627 4.92857 13.1429C4.92857 12.3231 4.70843 11.5428 4.30921 10.9448C3.91493 10.3534 3.2775 9.85721 2.46429 9.85721ZM11.5 9.85721C9.52857 9.85721 8.06807 10.9152 7.13493 12.2279C6.21329 13.5208 5.75 15.1259 5.75 16.4286C5.75 17.9466 6.66179 19.0014 7.78057 19.6355C8.88129 20.2598 10.2613 20.5358 11.5 20.5358C12.7387 20.5358 14.1187 20.2614 15.2194 19.6355C16.3366 19.0014 17.25 17.9466 17.25 16.4286C17.25 15.1259 16.7867 13.5208 15.8651 12.2279C14.9336 10.9136 13.4731 9.85721 11.5 9.85721ZM20.5357 9.85721C19.7225 9.85721 19.0851 10.3517 18.6908 10.9448C18.2916 11.5428 18.0714 12.3231 18.0714 13.1429C18.0714 13.9627 18.2916 14.7431 18.6908 15.3411C19.0851 15.9325 19.7225 16.4286 20.5357 16.4286C21.3489 16.4286 21.9864 15.9341 22.3806 15.3411C22.7799 14.7431 23 13.9627 23 13.1429C23 12.3231 22.7799 11.5428 22.3806 10.9448C21.9864 10.3534 21.3489 9.85721 20.5357 9.85721Z" fill="#A3D0BE"/>
</g>
<defs>
<clipPath id="clip0_23_643">
<rect width="23" height="23" fill="white"/>
</clipPath>
</defs>
</svg>
