<svg width="82" height="67" viewBox="0 0 82 67" fill="none" xmlns="http://www.w3.org/2000/svg">
<path d="M58.1679 30.7082C57.6582 29.547 56.7663 28.1277 54.9825 26.9665C53.9632 26.3214 50.0134 25.8053 49.886 29.418C49.886 29.418 48.2297 29.676 48.3571 30.8373C48.3571 30.8373 47.3378 34.321 52.1795 33.9339C52.1795 33.9339 53.0713 40.5142 53.8358 41.9335C53.8358 41.9335 54.2181 43.2237 54.3455 44.514H56.3841L56.5115 41.9335C56.5115 41.9335 57.6582 42.7076 58.5501 44.514H61.4806C61.3532 43.4818 61.2258 42.5786 60.971 41.9335C60.971 41.9335 65.303 41.9335 66.832 39.9981C66.832 39.9981 68.1061 42.4496 69.635 42.5786V44.643H71.6737C71.8011 44.256 71.8011 43.8689 71.9285 43.2237C71.9285 43.2237 72.693 43.6108 73.0752 44.643H74.859C74.6042 43.7398 72.3107 35.3532 71.5462 34.708C71.5462 34.708 72.693 34.579 73.0752 35.9983C73.0752 35.9983 73.7123 38.9659 74.9864 38.8369C74.9864 38.8369 75.8783 36.9015 74.3493 34.45C74.3493 34.45 73.7123 32.6436 70.3995 32.9017L60.8435 32.6436C59.5694 32.3856 58.6775 31.6114 58.1679 30.7082Z" fill="#124C5F"/>
<path d="M46.5737 20.773C47.3382 19.7408 47.2108 18.1925 46.1915 17.2893C45.1722 16.5151 43.6432 16.6442 42.7514 17.6764C40.3305 20.773 35.9985 21.2891 32.9405 19.9988L31.2842 24.6438C36.5081 26.7082 42.8788 25.676 46.5737 20.773Z" fill="#124C5F"/>
<path d="M24.9132 12.6445C28.3612 12.6445 31.1564 9.81396 31.1564 6.32227C31.1564 2.83058 28.3612 0 24.9132 0C21.4651 0 18.6699 2.83058 18.6699 6.32227C18.6699 9.81396 21.4651 12.6445 24.9132 12.6445Z" fill="#124C5F"/>
<path d="M28.6083 45.9332L23.257 43.7398L26.4423 34.5789C19.3072 30.5791 16.7589 24.2568 16.6315 23.8698C15.867 21.9344 16.7589 19.87 18.6701 19.0958C20.5813 18.3217 22.6199 19.2248 23.3844 21.1602C23.5118 21.4183 25.0408 24.773 28.9906 27.4825L31.4114 20.7731C31.6662 19.999 31.5388 19.2248 31.0292 18.5797C26.4423 13.4187 21.091 11.4833 15.23 13.2896C13.5736 13.8058 12.4269 15.096 12.0446 16.7733L6.94812 43.6107C6.94812 43.7398 6.94812 43.7398 6.94812 43.8688C6.94812 43.9978 6.94812 44.2559 6.94812 44.3849L7.20294 56.6423L4.39986 55.9972C2.48866 55.6101 0.450052 56.9004 0.0678125 58.8358C-0.314427 60.7712 0.959704 62.8356 2.8709 63.2227L10.1334 64.771C11.2802 65.029 12.2995 64.771 13.1914 63.9968C14.0832 63.2227 14.5929 62.1905 14.4655 61.0292L14.2107 48.1266L23.5118 51.8684V63.0936C23.5118 65.1581 25.1682 66.8354 27.2068 66.8354C29.2454 66.8354 30.9018 65.1581 30.9018 63.0936V49.4169C31.0292 47.8686 30.0099 46.5783 28.6083 45.9332Z" fill="#124C5F"/>
<path d="M38.4193 31.8693C26.315 30.9661 22.4926 22.0633 22.3652 21.6763C21.8556 20.386 20.454 19.8699 19.1799 20.386C17.9057 20.9021 17.3961 22.3214 17.9057 23.6117C18.1606 24.1278 23.0023 35.7401 38.1644 36.9013C39.566 37.0303 40.7127 35.9981 40.7127 34.5789C40.7127 33.1596 39.8208 31.9983 38.4193 31.8693Z" fill="#124C5F"/>
<path d="M60.2066 15.0961C57.6583 15.6122 55.7471 17.9346 55.7471 20.6442H67.0869C67.0869 17.6766 64.9209 15.3541 62.1178 14.967C58.2954 10.7092 52.1796 12.3865 47.3379 16.6444C47.5927 16.9024 47.8475 17.2895 48.1024 17.6766C51.5425 14.4509 56.2568 12.2575 60.2066 15.0961Z" fill="#124C5F"/>
<path d="M79.5736 45.6752H43.7706C42.7513 45.6752 41.8594 46.5784 41.8594 47.6106C41.8594 48.6428 42.7513 49.5459 43.7706 49.5459H44.1528V52.7716C44.1528 57.8036 48.23 61.9324 53.1991 61.9324H70.3999C75.369 61.9324 79.4462 57.8036 79.4462 52.7716V49.5459H79.8285C80.8478 49.5459 81.7397 48.6428 81.7397 47.6106C81.4848 46.4493 80.5929 45.6752 79.5736 45.6752Z" fill="#124C5F"/>
<path d="M56.7668 23.2247L56.8942 22.0635C56.8942 21.6764 56.7668 21.4183 56.3846 21.4183C56.0024 21.4183 55.7475 21.5474 55.7475 21.9344L55.6201 23.0957C55.6201 23.4827 55.7475 23.7408 56.1298 23.7408C56.3846 23.7408 56.6394 23.4827 56.7668 23.2247Z" fill="#124C5F"/>
<path d="M55.2378 24.7729L55.1104 25.9342C55.1104 26.3213 55.2378 26.5793 55.62 26.5793C56.0022 26.5793 56.2571 26.4503 56.2571 26.0632L56.3845 24.902C56.3845 24.5149 56.2571 24.2568 55.8748 24.2568C55.62 24.2568 55.3652 24.5149 55.2378 24.7729Z" fill="#124C5F"/>
<path d="M59.5697 23.7407C59.9519 23.7407 60.2067 23.4826 60.2067 23.0955V21.8053C60.2067 21.4182 59.9519 21.1602 59.5697 21.1602C59.1874 21.1602 58.9326 21.4182 58.9326 21.8053V23.0955C58.9326 23.3536 59.3149 23.7407 59.5697 23.7407Z" fill="#124C5F"/>
<path d="M58.8052 26.0632C58.8052 26.4503 59.06 26.7083 59.4422 26.7083C59.8245 26.7083 60.0793 26.4503 60.0793 26.0632V24.7729C60.0793 24.3859 59.8245 24.1278 59.4422 24.1278C59.06 24.1278 58.8052 24.3859 58.8052 24.7729V26.0632Z" fill="#124C5F"/>
<path d="M63.0101 21.2893C62.6279 21.2893 62.373 21.5474 62.373 21.9344V23.2247C62.373 23.6118 62.6279 23.8698 63.0101 23.8698C63.3924 23.8698 63.6472 23.6118 63.6472 23.2247V21.9344C63.6472 21.5474 63.3924 21.2893 63.0101 21.2893Z" fill="#124C5F"/>
<path d="M62.6277 24.902V26.1922C62.6277 26.5793 62.8825 26.8374 63.2647 26.8374C63.647 26.8374 63.9018 26.5793 63.9018 26.1922V24.902C63.9018 24.5149 63.647 24.2568 63.2647 24.2568C62.7551 24.2568 62.5003 24.5149 62.6277 24.902Z" fill="#124C5F"/>
<path d="M66.3226 21.2893C65.9404 21.2893 65.813 21.6764 65.813 21.9344L65.9404 23.0957C65.9404 23.3537 66.1952 23.6118 66.5775 23.6118C66.9597 23.6118 67.2145 23.2247 67.2145 22.8376L66.9597 21.8054C66.9597 21.4183 66.5775 21.1603 66.3226 21.2893Z" fill="#124C5F"/>
<path d="M66.1953 25.031L66.3227 26.1922C66.3227 26.4503 66.705 26.7083 66.9598 26.7083C67.342 26.7083 67.5969 26.3212 67.4694 26.0632V24.7729C67.4694 24.3859 67.0872 24.2568 66.8324 24.2568C66.4501 24.3859 66.1953 24.6439 66.1953 25.031Z" fill="#124C5F"/>
</svg>
