<svg width="65" height="72" viewBox="0 0 65 72" fill="none" xmlns="http://www.w3.org/2000/svg">
<path d="M13.0295 57.2247L15.442 48.563L14.5647 46.0089C12.7005 45.6758 11.1653 44.6763 10.1784 43.3438L6.88859 55.0037L0.418678 66.6637C-0.458597 68.2184 0.0897 70.2173 1.62493 71.1056C3.16016 71.994 5.13403 71.4388 6.01131 69.8841L12.8102 57.891C12.9199 57.6689 13.0295 57.4468 13.0295 57.2247Z" fill="#124C5F"/>
<path d="M2.0638 33.3496C3.05074 33.9049 4.36665 33.4607 4.91495 32.3502L9.84963 22.1338L10.7269 21.4675L11.1655 18.6914C11.3849 17.2477 12.0428 15.9152 12.9201 14.8047L6.99848 18.6914C6.6695 18.9134 6.45018 19.2466 6.23086 19.5797L1.07687 30.3513C0.528572 31.4618 0.967209 32.7944 2.0638 33.3496Z" fill="#124C5F"/>
<path d="M20.4861 12.4727C23.7565 12.4727 26.4077 9.78799 26.4077 6.47618C26.4077 3.16437 23.7565 0.479614 20.4861 0.479614C17.2156 0.479614 14.5645 3.16437 14.5645 6.47618C14.5645 9.78799 17.2156 12.4727 20.4861 12.4727Z" fill="#124C5F"/>
<path d="M59.0864 57.2247C59.0864 57.2247 59.1961 57.3357 59.1961 57.4468C60.0734 56.8916 60.4024 55.67 60.4024 55.67C63.6921 56.6695 64.3501 53.5601 64.3501 53.5601C64.7887 52.6718 62.5955 51.7834 62.5955 51.7834C62.4859 49.5624 59.9637 48.8961 59.9637 48.8961C58.7575 47.7857 59.0864 48.8961 59.0864 48.8961C57.8802 48.7851 57.1126 49.2293 57.1126 49.2293C55.1387 47.3415 53.9325 50.2287 53.9325 50.2287C53.6035 50.2287 53.3842 50.3398 53.0552 50.3398C55.029 53.0049 57.1126 55.3369 59.0864 57.2247Z" fill="#124C5F"/>
<path d="M61.828 63.9987C61.2797 63.4435 57.3319 61.0004 57.3319 61.0004C58.2092 60.5562 58.3189 58.6684 58.3189 58.0022C56.2353 56.0033 54.0421 53.4492 51.849 50.562C50.7524 50.7841 43.5148 53.8934 36.4966 50.673C33.8648 49.4515 31.562 51.2283 31.562 51.2283C29.5881 53.5603 30.4654 57.3359 30.4654 57.3359L33.2068 54.3376C34.6324 53.2271 35.1807 53.4492 35.5097 54.0044C35.729 54.4486 35.6194 55.0039 35.2904 55.4481C32.6586 58.2243 33.5358 61.1115 33.5358 61.1115L29.8074 64.4429C28.3818 65.9976 30.0267 67.2191 30.0267 67.2191C30.3557 65.9976 32.9875 64.1098 32.9875 64.1098C32.8779 65.5534 33.5358 65.8865 33.5358 65.8865C35.4 65.3313 34.9614 63.4435 34.9614 63.4435C37.9222 63.3324 38.2512 61.9999 38.2512 61.9999C41.212 62.5551 42.6376 60.5562 42.6376 60.5562C43.4052 61.9999 50.0944 63.5545 50.0944 63.5545C50.533 63.7766 53.0552 68.8848 53.0552 68.8848C53.6035 68.9959 54.1518 69.7732 54.1518 69.7732C55.3581 70.5505 57.8802 69.6621 57.8802 69.6621C57.6609 68.6627 56.345 68.6627 56.345 68.6627C53.3842 68.6627 53.8228 63.6656 53.8228 63.6656C53.9325 62.9993 56.2353 64.2208 56.2353 64.2208L61.2797 66.1086C63.8018 67.4412 64.8984 65.8865 64.8984 65.8865C65.666 64.665 61.828 63.9987 61.828 63.9987Z" fill="#124C5F"/>
<path d="M37.0449 24.4658C39.5671 30.1292 44.9404 41.345 51.8489 50.4509C52.1779 50.3399 52.6166 50.3399 53.0552 50.2288C52.9455 50.1178 52.8359 50.0067 52.7262 49.7846C45.8177 40.7898 40.4444 29.574 38.0319 24.0216C37.5932 24.3547 37.1546 24.4658 37.0449 24.4658Z" fill="#124C5F"/>
<path d="M36.9354 23.3553C38.032 22.9111 38.6899 21.6896 38.2513 20.5791C37.8126 19.4687 36.6064 18.8024 35.5098 19.2466L29.5882 21.3565C22.6796 14.8047 22.3507 13.6942 19.6092 13.25C16.1001 12.6948 12.8103 15.2489 12.262 18.8024L9.63016 37.4584C9.08187 41.0119 11.604 44.3433 15.1131 44.8986C15.2228 44.8986 15.3325 44.8986 15.4421 44.8986L18.2933 53.5603L12.4813 62.222C11.4944 63.6656 11.8234 65.7755 13.3586 66.7749C14.7842 67.7744 16.8677 67.4412 17.8546 65.8865L24.6535 55.8923C25.2018 55.0039 25.4211 54.0045 25.0921 53.005L21.4734 42.0113C22.0217 41.234 22.4603 40.2346 22.57 39.2351L24.9825 22.689L27.724 25.3542C28.2723 25.9094 29.1495 26.1315 29.9172 25.7984L36.9354 23.3553Z" fill="#124C5F"/>
</svg>
